<?xml version="1.0" standalone="no"?>
<!DOCTYPE svg PUBLIC "-//W3C//DTD SVG 20010904//EN"
 "http://www.w3.org/TR/2001/REC-SVG-20010904/DTD/svg10.dtd">
<svg version="1.0" xmlns="http://www.w3.org/2000/svg"
 width="500.000000pt" height="500.000000pt" viewBox="0 0 500.000000 500.000000"
 preserveAspectRatio="xMidYMid meet">

<g transform="translate(0.000000,500.000000) scale(0.100000,-0.100000)"
fill="#d895b1" stroke="none">
<path d="M4625 4704 c-27 -7 -103 -13 -168 -13 -68 -1 -128 -6 -140 -13 -12
-6 -48 -35 -80 -64 -75 -70 -125 -104 -222 -150 -65 -31 -97 -56 -170 -129
-139 -141 -212 -190 -346 -234 -37 -12 -99 -42 -138 -67 -58 -38 -76 -44 -101
-39 -37 8 -61 38 -84 106 -17 49 -17 59 -5 104 13 46 18 51 59 65 25 8 50 19
57 23 14 9 9 107 -6 135 -5 10 -6 24 -1 32 12 20 2 37 -32 51 -21 9 -36 26
-50 58 -24 57 -51 87 -102 113 -57 29 -161 22 -241 -16 -33 -16 -73 -30 -88
-30 -28 -1 -57 -27 -57 -51 0 -6 -13 -24 -29 -39 -16 -15 -32 -43 -35 -61 -12
-63 36 -135 90 -135 15 0 28 -13 46 -47 14 -27 43 -62 69 -81 90 -67 92 -69
84 -110 -3 -20 -10 -41 -15 -45 -4 -5 -32 -4 -63 2 -30 7 -117 11 -198 9
l-144 -3 -95 47 c-110 55 -165 69 -390 98 -90 11 -182 25 -205 30 -22 6 -107
14 -190 20 -141 9 -156 8 -245 -13 l-95 -23 0 -33 c-1 -37 -2 -37 125 -12 71
14 162 5 158 -16 -2 -9 -23 -23 -47 -32 -24 -9 -46 -22 -49 -30 -8 -25 123 -5
197 30 48 23 74 30 101 26 20 -2 113 -38 206 -80 160 -71 308 -117 380 -117
16 0 52 -11 79 -23 28 -13 109 -43 180 -67 72 -23 138 -50 149 -60 15 -14 19
-36 22 -102 2 -45 8 -116 14 -156 13 -96 13 -149 -2 -158 -6 -4 -47 -10 -89
-14 -70 -6 -84 -11 -125 -43 -51 -40 -91 -47 -134 -22 -14 8 -41 14 -61 15
-80 0 -225 33 -284 63 -51 27 -75 32 -160 38 -98 6 -103 8 -220 67 -74 38
-123 58 -129 52 -5 -5 -28 1 -59 17 -60 30 -229 74 -377 98 -201 32 -266 47
-375 84 -89 30 -122 47 -175 90 -87 71 -270 161 -327 161 -33 0 -46 -5 -62
-26 -37 -47 -28 -71 56 -154 58 -57 108 -93 197 -143 66 -37 129 -70 140 -72
12 -3 59 -6 106 -8 79 -3 93 -7 190 -54 58 -28 143 -76 189 -107 90 -60 160
-86 297 -110 48 -9 96 -22 108 -29 15 -10 28 -40 44 -103 13 -49 32 -121 42
-160 11 -39 17 -80 13 -92 -11 -44 50 -146 144 -241 48 -49 108 -117 133 -151
25 -35 60 -83 78 -109 31 -42 33 -50 27 -95 -6 -45 -4 -52 23 -80 16 -17 33
-47 36 -67 4 -21 13 -43 22 -50 9 -7 24 -30 35 -51 11 -22 28 -42 37 -45 9 -4
36 -24 59 -45 24 -21 49 -38 58 -38 8 0 32 -16 54 -35 21 -19 52 -38 70 -41
17 -4 47 -21 66 -38 19 -17 48 -41 63 -53 l29 -22 6 -181 c8 -219 11 -230 148
-507 54 -111 99 -208 99 -215 0 -7 -9 -28 -20 -46 -11 -18 -20 -49 -20 -69 0
-32 8 -44 55 -88 47 -45 56 -59 65 -105 5 -29 10 -84 10 -123 0 -81 15 -139
42 -164 17 -16 22 -16 45 -3 68 39 98 142 90 301 -5 90 -11 120 -42 200 -20
52 -56 128 -80 169 -24 41 -48 93 -53 115 -14 52 -49 281 -56 368 -7 74 1 82
54 52 30 -17 74 -19 101 -5 10 6 28 29 39 51 12 22 27 42 34 45 7 3 44 -4 82
-14 l69 -19 26 29 c16 17 37 28 53 28 14 0 26 4 26 9 0 5 -22 43 -50 84 -72
111 -76 123 -85 222 -13 132 -7 273 21 515 13 118 29 303 34 410 6 107 12 210
14 227 3 18 45 115 95 216 50 101 96 208 102 238 7 34 10 95 6 166 -6 101 -4
114 14 137 21 26 128 107 193 145 22 12 79 57 128 99 49 42 114 91 146 109 41
23 108 84 238 219 l181 187 79 -12 c43 -6 110 -19 147 -28 65 -16 69 -16 78 0
12 21 42 22 59 2 14 -16 40 -20 40 -6 0 5 -18 32 -41 61 -22 28 -38 55 -34 58
3 4 30 9 58 12 48 6 50 7 27 17 -43 17 -93 20 -145 7z"/>
</g>
</svg>
